<?xml version="1.0" encoding="iso-8859-1"?>
<!-- Generator: Adobe Illustrator 22.1.0, SVG Export Plug-In . SVG Version: 6.00 Build 0)  -->
<svg xmlns="http://www.w3.org/2000/svg" xmlns:xlink="http://www.w3.org/1999/xlink" version="1.1" id="Two-Tone" x="0px" y="0px" viewBox="0 0 24 24" style="enable-background:new 0 0 24 24;" xml:space="preserve" width="24px" height="24px">
<path d="M12,1C9.794,1,8,2.794,8,5v7c0,2.206,1.794,4,4,4s4-1.794,4-4V5C16,2.794,14.206,1,12,1z M14.5,12  c0,1.381-1.119,2.5-2.5,2.5S9.5,13.381,9.5,12V5c0-1.381,1.119-2.5,2.5-2.5s2.5,1.119,2.5,2.5V12z"/>
<path d="M12,8c-2.206,0-4,1.794-4,4v7c0,2.206,1.794,4,4,4s4-1.794,4-4v-7C16,9.794,14.206,8,12,8z M14.5,19  c0,1.381-1.119,2.5-2.5,2.5S9.5,20.381,9.5,19v-7c0-1.381,1.119-2.5,2.5-2.5s2.5,1.119,2.5,2.5V19z"/>
<path d="M23,12c0-2.206-1.794-4-4-4h-7c-2.206,0-4,1.794-4,4s1.794,4,4,4h7C21.206,16,23,14.206,23,12z M12,14.5  c-1.381,0-2.5-1.119-2.5-2.5s1.119-2.5,2.5-2.5h7c1.381,0,2.5,1.119,2.5,2.5s-1.119,2.5-2.5,2.5H12z"/>
<path d="M16,12c0-2.206-1.794-4-4-4H5c-2.206,0-4,1.794-4,4s1.794,4,4,4h7C14.206,16,16,14.206,16,12z M5,14.5  c-1.381,0-2.5-1.119-2.5-2.5S3.619,9.5,5,9.5h7c1.381,0,2.5,1.119,2.5,2.5s-1.119,2.5-2.5,2.5H5z"/>
<path d="M19.778,4.222c-1.56-1.56-4.097-1.56-5.657,0l-4.95,4.95c-1.56,1.56-1.56,4.097,0,5.657s4.097,1.56,5.657,0l4.95-4.95  C21.338,8.319,21.338,5.782,19.778,4.222z M13.768,13.768c-0.976,0.976-2.559,0.976-3.536,0s-0.976-2.559,0-3.536l4.95-4.95  c0.976-0.976,2.559-0.976,3.536,0c0.976,0.976,0.976,2.559,0,3.536L13.768,13.768z"/>
<path d="M14.828,9.172c-1.56-1.56-4.097-1.56-5.657,0l-4.95,4.95c-1.56,1.56-1.56,4.097,0,5.657c1.56,1.56,4.097,1.56,5.657,0  l4.95-4.95C16.388,13.269,16.388,10.731,14.828,9.172z M8.818,18.718c-0.976,0.976-2.559,0.976-3.536,0  c-0.976-0.976-0.976-2.559,0-3.536l4.95-4.95c0.976-0.976,2.559-0.976,3.536,0s0.976,2.559,0,3.536L8.818,18.718z"/>
<path d="M19.778,19.778c1.56-1.56,1.56-4.097,0-5.657l-4.95-4.95c-1.56-1.56-4.097-1.56-5.657,0s-1.56,4.097,0,5.657l4.95,4.95  C15.681,21.338,18.218,21.338,19.778,19.778z M10.232,13.768c-0.976-0.976-0.976-2.559,0-3.536s2.559-0.976,3.536,0l4.95,4.95  c0.976,0.976,0.976,2.559,0,3.536c-0.976,0.976-2.559,0.976-3.536,0L10.232,13.768z"/>
<path d="M14.828,14.828c1.56-1.56,1.56-4.097,0-5.657l-4.95-4.95c-1.56-1.56-4.097-1.56-5.657,0s-1.56,4.097,0,5.657l4.95,4.95  C10.731,16.388,13.269,16.388,14.828,14.828z M5.282,8.818c-0.976-0.976-0.976-2.559,0-3.536s2.559-0.976,3.536,0l4.95,4.95  c0.976,0.976,0.976,2.559,0,3.536s-2.559,0.976-3.536,0L5.282,8.818z"/>
</svg>
